# Original low-poly proof asset. No external source or brand.
o ENV_WARUNG_PROP_PROTO_v001
v -1.20 0.00 -0.70
v 1.20 0.00 -0.70
v 1.20 0.00 0.70
v -1.20 0.00 0.70
v -1.20 1.40 -0.70
v 1.20 1.40 -0.70
v 1.20 1.40 0.70
v -1.20 1.40 0.70
v -1.00 1.40 -0.55
v 1.00 1.40 -0.55
v 1.00 1.40 0.55
v -1.00 1.40 0.55
v -0.92 2.10 -0.48
v 0.92 2.10 -0.48
v 0.92 2.10 0.48
v -0.92 2.10 0.48
f 1 2 6 5
f 2 3 7 6
f 3 4 8 7
f 4 1 5 8
f 5 6 10 9
f 6 7 11 10
f 7 8 12 11
f 8 5 9 12
f 9 10 14 13
f 10 11 15 14
f 11 12 16 15
f 12 9 13 16