mtllib CHR_ARYA_BLOCKOUT_PROTO_v001.mtl
o CHR_ARYA_BLOCKOUT_PROTO_v001
usemtl MAT_ARYA_UNIFORM
v -0.35 0.00 -0.22
v 0.35 0.00 -0.22
v -0.35 0.00 0.22
v 0.35 0.00 0.22
v -0.28 1.15 -0.18
v 0.28 1.15 -0.18
v -0.28 1.15 0.18
v 0.28 1.15 0.18
v -0.22 1.35 -0.18
v 0.22 1.35 -0.18
v -0.22 1.35 0.18
v 0.22 1.35 0.18
v -0.18 1.80 -0.18
v 0.18 1.80 -0.18
v -0.18 1.80 0.18
v 0.18 1.80 0.18
v -0.35 2.10 -0.35
v 0.35 2.10 -0.35
v -0.35 2.10 0.35
v 0.35 2.10 0.35
f 1 2 6 5
f 3 7 8 4
f 1 5 7 3
f 2 4 8 6
f 5 6 10 9
f 7 11 12 8
f 5 9 11 7
f 6 8 12 10
f 9 10 14 13
f 11 15 16 12
f 13 14 18 17
f 15 19 20 16
f 17 18 20 19